<?xml version="1.0" encoding="UTF-8"?><svg id="_レイヤー_2" xmlns="http://www.w3.org/2000/svg" viewBox="0 0 500.18 54.16"><defs><style>.cls-1{fill:#fff;}.cls-2{fill:#090;}</style></defs><g id="_レイヤー_1-2"><g><g><path class="cls-1" d="M324.66,13.23h1.45v8.61h-1.45V13.23Z"/><path class="cls-1" d="M328.44,13.23h1.73l3.36,5.76c.18,.32,.36,.66,.53,1.03h.02c-.02-.41-.04-.83-.04-1.21l-.08-5.58h1.39v8.61h-1.67l-3.32-5.67c-.22-.37-.43-.78-.62-1.16h-.02c.02,.44,.04,.88,.04,1.27l.07,5.56h-1.38V13.23Z"/><path class="cls-1" d="M337.68,13.23h3.08c2.55,0,3.98,1.5,3.98,4.17s-1.57,4.44-4.11,4.44h-2.95V13.23Zm1.45,1.19v6.26h1.35c1.8,0,2.75-1.1,2.75-3.19s-.91-3.07-2.71-3.07h-1.39Z"/><path class="cls-1" d="M346.56,18.41v-5.18h1.44v5.1c0,1.67,.67,2.34,2.06,2.34s1.98-.73,1.98-2.33v-5.11h1.46v5.06c0,2.45-1.14,3.63-3.49,3.63s-3.45-.98-3.45-3.51Z"/><path class="cls-1" d="M355.43,21.37l.1-1.38c.77,.47,1.63,.73,2.52,.73s1.42-.43,1.42-1.14c0-.92-.84-1.27-1.78-1.64-1.08-.43-2.24-.94-2.24-2.37s1.15-2.42,3.09-2.42c.68,0,1.5,.12,2.09,.41l-.1,1.34c-.55-.34-1.43-.54-2.1-.54-.97,0-1.48,.42-1.48,1.08,0,.73,.76,1.09,1.64,1.45,1.12,.46,2.37,1,2.37,2.54s-1.16,2.49-3.02,2.49c-.95,0-1.81-.18-2.52-.55Z"/><path class="cls-1" d="M364.74,14.46h-2.67v-1.24h6.79v1.24h-2.66v7.38h-1.45v-7.38Z"/><path class="cls-1" d="M370.32,13.23h3.17c1.88,0,2.9,.86,2.9,2.45,0,1.19-.53,2.06-1.5,2.53l2.15,3.63h-1.69l-1.81-3.3c-.16,.01-.32,.02-.49,.02h-1.27v3.27h-1.45V13.23Zm1.44,1.14v3.11h1.22c1.38,0,1.94-.59,1.94-1.67,0-.92-.48-1.44-1.71-1.44h-1.45Z"/><path class="cls-1" d="M380.37,18.78l-2.97-5.55h1.61l2.1,4.26,2.13-4.26h1.61l-3.03,5.52v3.09h-1.44v-3.06Z"/><path class="cls-1" d="M324.18,32.6c0-2.69,1.78-4.46,4.49-4.46,.7,0,1.39,.1,1.93,.28l-.08,1.34c-.61-.24-1.21-.36-1.91-.36-1.81,0-2.93,1.24-2.93,3.2s1.14,3.06,2.99,3.06c.71,0,1.32-.14,1.9-.41l.08,1.26c-.64,.28-1.37,.41-2.09,.41-2.77,0-4.38-1.6-4.38-4.32Z"/><path class="cls-1" d="M331.85,32.66c0-2.63,1.67-4.52,4.08-4.52s3.99,1.73,3.99,4.27-1.54,4.51-4.14,4.51c-2.37,0-3.93-1.73-3.93-4.26Zm6.56-.1c0-1.46-.62-3.13-2.59-3.13-1.54,0-2.46,1.43-2.46,3.08,0,1.8,.94,3.12,2.52,3.12s2.53-1.32,2.53-3.07Z"/><path class="cls-1" d="M340.8,35.97c0-.53,.4-.98,.97-.98s.97,.46,.97,.98-.41,.97-.97,.97-.97-.44-.97-.97Z"/><path class="cls-1" d="M344.84,28.23h1.45v7.39h3.69v1.22h-5.15v-8.61Z"/><path class="cls-1" d="M352.46,29.46h-2.67v-1.24h6.79v1.24h-2.66v7.38h-1.45v-7.38Z"/><path class="cls-1" d="M358.04,28.23h3.08c2.55,0,3.98,1.5,3.98,4.17s-1.57,4.44-4.11,4.44h-2.95v-8.61Zm1.45,1.19v6.26h1.36c1.8,0,2.75-1.1,2.75-3.19s-.91-3.07-2.71-3.07h-1.39Z"/><path class="cls-1" d="M366,35.97c0-.53,.4-.98,.97-.98s.97,.46,.97,.98-.41,.97-.97,.97-.97-.44-.97-.97Z"/></g><g><path class="cls-1" d="M0,15.39H3.51v9.49L11.89,15.39h4.5L7.63,24.53l8.96,11.69h-4.47l-6.73-9.37-1.89,1.94v7.43H0V15.39Z"/><path class="cls-1" d="M31.67,15.39h3.51v20.83h-3.51V15.39Z"/><path class="cls-1" d="M51.77,35.09l.23-3.34c1.86,1.13,3.94,1.77,6.09,1.77s3.42-1.04,3.42-2.76c0-2.23-2.03-3.07-4.29-3.97-2.61-1.04-5.42-2.26-5.42-5.74s2.78-5.86,7.48-5.86c1.65,0,3.63,.29,5.05,.99l-.23,3.25c-1.33-.81-3.45-1.31-5.08-1.31-2.35,0-3.57,1.02-3.57,2.61,0,1.77,1.83,2.64,3.97,3.51,2.7,1.1,5.74,2.41,5.74,6.15s-2.81,6.03-7.31,6.03c-2.29,0-4.38-.44-6.09-1.33Z"/><path class="cls-1" d="M87.23,15.39h4.15l7.45,20.83h-3.74l-2.06-6.06h-7.54l-2.03,6.06h-3.77l7.54-20.83Zm4.9,11.95l-2.9-8.7-2.93,8.7h5.83Z"/><path class="cls-1" d="M114.26,15.39h3.51v20.83h-3.51V15.39Z"/><path class="cls-1" d="M154.89,15.39h12.44v2.87h-8.93v6.38h8.44v2.87h-8.44v8.7h-3.51V15.39Z"/><path class="cls-1" d="M182.26,26.12c0-6.35,4.03-10.94,9.86-10.94s9.66,4.18,9.66,10.33-3.71,10.91-10.01,10.91c-5.74,0-9.51-4.18-9.51-10.3Zm15.87-.23c0-3.54-1.51-7.57-6.27-7.57-3.71,0-5.95,3.45-5.95,7.45,0,4.35,2.26,7.54,6.09,7.54s6.12-3.19,6.12-7.43Z"/><path class="cls-1" d="M217.01,26.12c0-6.35,4.03-10.94,9.86-10.94s9.66,4.18,9.66,10.33-3.71,10.91-10.01,10.91c-5.74,0-9.51-4.18-9.51-10.3Zm15.87-.23c0-3.54-1.51-7.57-6.27-7.57-3.71,0-5.95,3.45-5.95,7.45,0,4.35,2.26,7.54,6.09,7.54s6.12-3.19,6.12-7.43Z"/><path class="cls-1" d="M252.76,15.39h7.46c6.18,0,9.63,3.63,9.63,10.09s-3.8,10.73-9.95,10.73h-7.14V15.39Zm3.51,2.87v15.14h3.28c4.35,0,6.64-2.67,6.64-7.72s-2.2-7.43-6.56-7.43h-3.37Z"/><path class="cls-1" d="M285.27,35.09l.23-3.34c1.86,1.13,3.94,1.77,6.09,1.77s3.42-1.04,3.42-2.76c0-2.23-2.03-3.07-4.29-3.97-2.61-1.04-5.42-2.26-5.42-5.74s2.78-5.86,7.48-5.86c1.65,0,3.63,.29,5.05,.99l-.23,3.25c-1.33-.81-3.45-1.31-5.08-1.31-2.35,0-3.57,1.02-3.57,2.61,0,1.77,1.83,2.64,3.97,3.51,2.7,1.1,5.74,2.41,5.74,6.15s-2.81,6.03-7.31,6.03c-2.29,0-4.38-.44-6.09-1.33Z"/></g><g><polygon class="cls-2" points="445.96 53.95 476.34 53.95 499.91 30.38 499.91 0 445.96 53.95"/><polygon class="cls-2" points="500.18 17.79 500.18 11.61 457.63 54.16 463.81 54.16 500.18 17.79"/></g></g></g></svg>